<svg id="black-logo-6" viewBox="0 0 200 200" xmlns="http://www.w3.org/2000/svg"><circle cx="100" cy="100" r="90" fill="#33ffdd"/><path d="M65,45 L115,45 L145,75 L145,155 C145,160 141,165 135,165 L65,165 C59,165 55,160 55,155 L55,55 C55,50 59,45 65,45 Z" fill="white" stroke="#001a33" stroke-width="6"/><path d="M115,45 L145,75 L125,75 C120,75 115,70 115,65 L115,45 Z" fill="white" stroke="#001a33" stroke-width="6"/><ellipse cx="100" cy="105" rx="25" ry="15" fill="transparent" stroke="#001a33" stroke-width="6"/><circle cx="100" cy="105" r="8" fill="#33ffdd"/><line x1="75" y1="65" x2="105" y2="65" stroke="#001a33" stroke-width="6" stroke-linecap="round"/><line x1="75" y1="145" x2="125" y2="145" stroke="#001a33" stroke-width="6" stroke-linecap="round"/></svg>