<svg id="white-logo-1" viewBox="0 0 200 200" xmlns="http://www.w3.org/2000/svg"><circle cx="100" cy="100" r="90" fill="#00c2a9"/><path d="M65,45 L115,45 L145,75 L145,155 C145,160 141,165 135,165 L65,165 C59,165 55,160 55,155 L55,55 C55,50 59,45 65,45 Z" fill="#f5f5f5" stroke="#001f3f" stroke-width="6"/><path d="M115,45 L145,75 L125,75 C120,75 115,70 115,65 L115,45 Z" fill="#f5f5f5" stroke="#001f3f" stroke-width="6"/><ellipse cx="100" cy="105" rx="25" ry="15" fill="transparent" stroke="#001f3f" stroke-width="6"/><circle cx="100" cy="105" r="8" fill="#00c2a9"/><line x1="75" y1="65" x2="105" y2="65" stroke="#001f3f" stroke-width="6" stroke-linecap="round"/><line x1="75" y1="145" x2="125" y2="145" stroke="#001f3f" stroke-width="6" stroke-linecap="round"/><circle cx="45" cy="85" r="5" fill="#00c2a9"/><line x1="45" y1="85" x2="55" y2="85" stroke="#00c2a9" stroke-width="3"/><circle cx="45" cy="125" r="5" fill="#00c2a9"/><line x1="45" y1="125" x2="55" y2="125" stroke="#00c2a9" stroke-width="3"/><circle cx="155" cy="85" r="5" fill="#00c2a9"/><line x1="145" y1="85" x2="155" y2="85" stroke="#00c2a9" stroke-width="3"/><circle cx="155" cy="125" r="5" fill="#00c2a9"/><line x1="145" y1="125" x2="155" y2="125" stroke="#00c2a9" stroke-width="3"/></svg>